<svg xmlns="http://www.w3.org/2000/svg" width="83.815" height="47.894" viewBox="0 0 83.815 47.894">
  <path id="Path_64" data-name="Path 64" d="M474.111,192.154v-26.94a4.5,4.5,0,0,0-4.49-4.49H421.727a4.5,4.5,0,0,0-4.49,4.49v26.94a4.5,4.5,0,0,0,4.49,4.49h47.894A4.5,4.5,0,0,0,474.111,192.154Zm-53.881,0v-26.94a1.5,1.5,0,0,1,1.5-1.5h47.894a1.5,1.5,0,0,1,1.5,1.5v26.94a1.5,1.5,0,0,1-1.5,1.5H421.727A1.5,1.5,0,0,1,420.23,192.154Zm-7.483-25.444a1.5,1.5,0,0,1,1.5,1.5v8.98a1.5,1.5,0,1,1-2.993,0v-8.98A1.5,1.5,0,0,1,412.747,166.71Zm52.384-10.477v-4.49h-8.98v4.49a1.5,1.5,0,1,1-2.993,0v-4.49h-22.45a4.5,4.5,0,0,0-4.49,4.49,1.5,1.5,0,1,1-2.993,0,7.492,7.492,0,0,1,7.483-7.483h35.921a1.5,1.5,0,0,1,1.5,1.5v5.987a1.5,1.5,0,1,1-2.993,0Zm23.947-2.993a4.5,4.5,0,0,0-4.49-4.49H472.614a1.5,1.5,0,0,0-1.5,1.5v5.987a1.5,1.5,0,0,0,1.5,1.5h11.974A4.5,4.5,0,0,0,489.078,153.24Zm-14.967-1.5h10.477a1.5,1.5,0,1,1,0,2.993H474.111ZM445.674,166.71H424.72a1.5,1.5,0,0,0-1.5,1.5v14.967a1.5,1.5,0,0,0,1.5,1.5h20.954a1.5,1.5,0,0,0,1.5-1.5V168.207A1.5,1.5,0,0,0,445.674,166.71Zm-1.5,14.967h-17.96V169.7h17.96Zm23.947-13.47a1.5,1.5,0,0,1-1.5,1.5h-2.993a1.5,1.5,0,0,1,0-2.993h2.993A1.5,1.5,0,0,1,468.124,168.207Zm24.97-4.413-8.98,2.993a1.5,1.5,0,0,0-1.023,1.42v1.5H478.6a1.5,1.5,0,1,0,0,2.993h4.49v11.974H478.6a1.5,1.5,0,1,0,0,2.993h4.49v1.5a1.5,1.5,0,0,0,1.023,1.42l8.98,2.993a1.5,1.5,0,0,0,1.971-1.42v-26.94A1.5,1.5,0,0,0,493.094,163.794Zm-1.023,26.284-5.987-2v-18.8l5.987-2Zm-47.894-.917a1.5,1.5,0,0,1-1.5,1.5h-2.993a1.5,1.5,0,1,1,0-2.993h2.993A1.5,1.5,0,0,1,444.177,189.161Zm-11.974,0a1.5,1.5,0,0,1-1.5,1.5h-2.993a1.5,1.5,0,1,1,0-2.993h2.993A1.5,1.5,0,0,1,432.2,189.161Z" transform="translate(-411.25 -148.75)" fill="#fff" opacity="0.8"/>
</svg>
