<svg xmlns="http://www.w3.org/2000/svg" width="34.664" height="34" viewBox="0 0 34.664 34">
  <path id="Path_35" data-name="Path 35" d="M1112.769,16.066a17.169,17.169,0,0,0-17.332,17,17.335,17.335,0,0,0,34.664,0A17.168,17.168,0,0,0,1112.769,16.066Zm6.636,14.3c.01.14.01.28.01.42a9.207,9.207,0,0,1-9.365,9.185A9.436,9.436,0,0,1,1105,38.523a6.941,6.941,0,0,0,.8.04,6.673,6.673,0,0,0,4.086-1.379,3.289,3.289,0,0,1-3.077-2.239,4.222,4.222,0,0,0,.621.05,3.539,3.539,0,0,0,.866-.11,3.245,3.245,0,0,1-2.639-3.169v-.04a3.362,3.362,0,0,0,1.488.41,3.211,3.211,0,0,1-1.468-2.689,3.161,3.161,0,0,1,.448-1.629,9.418,9.418,0,0,0,6.787,3.379,3.571,3.571,0,0,1-.082-.74,3.259,3.259,0,0,1,3.291-3.229,3.313,3.313,0,0,1,2.405,1.02,6.558,6.558,0,0,0,2.089-.78,3.232,3.232,0,0,1-1.447,1.779,6.69,6.69,0,0,0,1.9-.5A7.008,7.008,0,0,1,1119.405,30.366Z" transform="translate(-1095.437 -16.066)" fill="#fff"/>
</svg>
