<svg xmlns="http://www.w3.org/2000/svg" width="34.664" height="34" viewBox="0 0 34.664 34">
  <g id="Group_26980" data-name="Group 26980" transform="translate(-1139.473 -16.066)">
    <path id="Path_37" data-name="Path 37" d="M1156.805,16.066a17.169,17.169,0,0,0-17.332,17,17.335,17.335,0,0,0,34.664,0A17.168,17.168,0,0,0,1156.805,16.066Zm9.463,21.693a2.458,2.458,0,0,1-1.746,1.724c-1.54.408-7.717.408-7.717.408s-6.177,0-7.717-.408a2.458,2.458,0,0,1-1.746-1.724,26.9,26.9,0,0,1,0-9.387,2.458,2.458,0,0,1,1.746-1.724c1.54-.408,7.717-.408,7.717-.408s6.177,0,7.717.408a2.458,2.458,0,0,1,1.746,1.724,26.892,26.892,0,0,1,0,9.387Z" fill="#fff"/>
    <path id="Path_38" data-name="Path 38" d="M1153.815,36.4V29.73l5.98,3.337Z" fill="#fff"/>
  </g>
</svg>
