<svg xmlns="http://www.w3.org/2000/svg" width="177.703" height="90.122" viewBox="0 0 177.703 90.122">
  <g id="Group_26960" data-name="Group 26960" transform="translate(-332.347 -238.87)">
    <g id="Group_26960-2" data-name="Group 26960" transform="translate(335.13 238.87)">
      <path id="Path_9034" data-name="Path 9034" d="M341.015,240.64l-4.918-.226.03-1.525c3.846.283,5.485.339,7.518.339,1.977,0,5.08-.227,6.941-.339,4.573-.113,7.8.227,10.607,2.486A10.279,10.279,0,0,1,365,249.113c.111,6.327-5.28,11.411-13.357,11.411A16.991,16.991,0,0,1,347,259.9l.121,6.892c.156,5.706.183,7.231.07,10.508l6.61.056.027,1.524c-3.277-.056-6.61-.056-9.885-.056-2.938,0-5.875,0-8.755.056l-.027-1.524,6.325-.056c.111-3.39.087-4.745-.008-10.169Zm5.959,17.794a14.618,14.618,0,0,0,3.339.4,8.852,8.852,0,0,0,5.171-1.468c1.9-1.356,3.316-4.238,3.255-7.74a9.9,9.9,0,0,0-.98-4.406c-1.407-2.881-3.976-4.463-8.268-4.463a22.31,22.31,0,0,0-2.822.17Z" transform="translate(-335.16 -238.87)" fill="#1a1818"/>
    </g>
    <g id="Group_26961" data-name="Group 26961" transform="translate(358.882 253.886)">
      <path id="Path_9035" data-name="Path 9035" d="M374.773,266.912c2.912,8.113,3.26,9.015,4.23,11.164l2.566.035v.936c-2.253-.035-4.716-.035-6.969-.035-.832,0-1.769,0-2.6.035v-.936l3.016-.035-2.392-7.385h-6.831l-2.114,7.385,3.4.035v.936c-1.248-.035-2.566-.035-3.813-.035-1.352,0-2.739,0-4.091.035v-.936l2.634-.035c1.248-3.19,1.977-5.548,3.121-9.43l2.184-7.247c1.11-3.987,1.422-5.235,1.873-7.35h1.525c.313,1.145.486,1.8,1.318,4.3.52,1.595,1.041,3.155,1.56,4.716Zm-2.5,2.739-.763-2.357c-1.837-5.409-2.045-6.033-2.565-7.351l-2.843,9.708Z" transform="translate(-359.171 -254.049)" fill="#1a1818"/>
    </g>
    <g id="Group_26962" data-name="Group 26962" transform="translate(380.759 254.128)">
      <path id="Path_9036" data-name="Path 9036" d="M385.169,255.646l-3.432-.035.035-.97c.624.035,1.421.035,2.115.035.728,0,1.491,0,2.15-.035,2.6-.139,5.062-.347,6-.347a9.533,9.533,0,0,1,5.513,1.422,5.458,5.458,0,0,1,2.219,4.4c0,3.571-3.016,5.617-6.206,6.172-.346.069-.659.1-.97.139l1.422.312a7.675,7.675,0,0,1,3.086,1.283c1.906,1.525,2.045,4.265,2.115,6.032v1.283a3.274,3.274,0,0,0,.8,2.53,1.938,1.938,0,0,0,1.178.52c.347,0,.659-.173.659-.554,0-.139-.242-.937-.242-1.11,0-.659.659-.8.97-.8a1.177,1.177,0,0,1,1.179,1.214c0,.8-.693,2.184-2.982,2.184a5.205,5.205,0,0,1-4.265-2.22,5.31,5.31,0,0,1-1.006-3.016l-.069-1.525c-.242-3.884-.8-5.686-5.027-5.686l-1.769.035v4.646c0,1.733,0,3.224-.069,6.518l3.953.035v.936c-1.838-.035-3.675-.035-5.513-.035-1.906,0-3.814,0-5.721.035v-.936l3.779-.035v-.59c.069-2.392.069-3.814.1-6.553Zm3.467,10.3c2.08.034,4.4.069,5.791-.971a5.083,5.083,0,0,0,1.595-4.022,6.373,6.373,0,0,0-1.352-4.229,4.743,4.743,0,0,0-3.64-1.353,5.289,5.289,0,0,0-2.011.278c-.382.242-.415.555-.382,1.595Z" transform="translate(-381.286 -254.294)" fill="#1a1818"/>
    </g>
    <g id="Group_26963" data-name="Group 26963" transform="translate(403.155 253.886)">
      <path id="Path_9037" data-name="Path 9037" d="M423.9,275.927a11.388,11.388,0,0,1-8.217,3.64c-5.894,0-11.754-5.166-11.754-12.586,0-6.1,4.508-12.932,11.581-12.932a12.862,12.862,0,0,1,8.39,21.878Zm-1.248-14.8c-.278-1.11-1.456-5.86-7-5.86a7.1,7.1,0,0,0-3.016.59c-3.363,1.456-4.439,5.062-4.439,11.512,0,2.427.139,6.136,2.428,8.737a6.249,6.249,0,0,0,5.1,2.219c7.178,0,7.455-7.35,7.455-11.061A25.77,25.77,0,0,0,422.649,261.122Z" transform="translate(-403.926 -254.049)" fill="#1a1818"/>
    </g>
    <g id="Group_26964" data-name="Group 26964" transform="translate(426.661 254.405)">
      <path id="Path_9038" data-name="Path 9038" d="M435.316,271.7c-.035,4.23-.035,5.027-.069,6.032h2.74c4.4-.138,5.721-.173,7.037-1.178,1.595-1.248,1.7-2.982,1.907-6l.97.035-.277,4.022c-.035.832-.1,1.629-.1,2.5-.034,1.387-.137,2.012-1.213,2.012-.52,0-3.016-.036-3.571-.07-1.282,0-7.489-.069-8.875-.069-1.6,0-4.647.069-6.173.1l.036-.936,3.987-.138c.035-1.491.069-2.983.069-6.241V262.2c0-3.606,0-5.027-.069-6.657l-3.987-.069v-.9c1.872.035,3.814.035,5.686.035,3.155,0,5.513-.035,6-.035v.9l-4.161.069c.035,1.075.035,1.664.035,3.189.035,1.179.035,2.358.035,3.537Z" transform="translate(-427.688 -254.574)" fill="#1a1818"/>
    </g>
    <g id="Group_26965" data-name="Group 26965" transform="translate(447.082 253.989)">
      <path id="Path_9039" data-name="Path 9039" d="M455.682,266.569l.173,11.2,2.219-.035c3.779-.069,5.582-.139,7.142-1.04,1.838-1.074,2.15-2.6,2.428-5.582l.97.035-.347,4.022c-.1,1.873-.172,2.531-.208,3.224-.069.59-.1.659-1.282.659-.244,0-1.492-.035-1.77-.035-3.5-.069-7-.069-10.5-.069-2.947,0-4.438.035-6.172.138v-.97l3.918-.139V255.612h-3.467v-1.006c.971.036,3.258.036,5.686.036,2.253,0,4.819-.036,6.032-.036,2.323-.068,4.785-.173,6.657-.277-.034,1.04-.034,1.352-.034,2.323l.208,4.4-.97.069a7.919,7.919,0,0,0-1.214-3.64c-1.213-1.457-3.4-1.7-6.8-1.7l-2.5.035-.138,9.778,1.56-.069c1.005-.069,2.532-.173,3.224-1.664a7.289,7.289,0,0,0,.486-2.739l.936.035c-.069,1.248-.138,2.5-.138,5.617,0,.659,0,2.5.069,4.4h-.97c-.278-2.427-.313-2.7-.555-3.189-.59-1.075-1.629-1.214-2.947-1.353Z" transform="translate(-448.331 -254.156)" fill="#1a1818"/>
      <path id="Path_9040" data-name="Path 9040" d="M472.011,270.693c.1,1.282.347,3.987,2.288,5.859a5.442,5.442,0,0,0,3.988,1.525c3.849,0,5.825-2.5,5.825-4.993a4.03,4.03,0,0,0-.381-1.733c-.728-1.526-2.151-2.012-4.022-2.566l-1.975-.59a10.977,10.977,0,0,1-4.369-2.08,6.107,6.107,0,0,1-2.22-4.854,6.945,6.945,0,0,1,6.8-7.108,8.073,8.073,0,0,1,4.957,1.872l.937-.867.659.313a19.332,19.332,0,0,0-.486,4.4c0,.763.036,1.456.1,2.15l-.971.1a12.147,12.147,0,0,0-.589-3.4,4.952,4.952,0,0,0-4.681-3.328,4.451,4.451,0,0,0-4.611,4.4c0,2.7,2.115,3.433,4.542,4.126l1.595.451c1.8.45,4.75,1.213,6.1,4.3a7.415,7.415,0,0,1,.589,2.983,7.624,7.624,0,0,1-7.593,7.766,10.062,10.062,0,0,1-5.894-2.15l-.97,1.421-.764-.313a18.255,18.255,0,0,0,.382-4.126,34.368,34.368,0,0,0-.208-3.5Z" transform="translate(-448.574 -254.154)" fill="#1a1818"/>
    </g>
    <g id="Group_26966" data-name="Group 26966" transform="translate(332.347 286.85)">
      <path id="Path_9041" data-name="Path 9041" d="M342.462,302.139c-.616.844-1.873,2.415-3.526,2.415-1.411,0-1.344-1.383-1.323-1.782a3.659,3.659,0,0,1-2.843,1.922c-1.057,0-2.424-.656-2.424-2.907,0-4.007,4.033-7.453,6.347-7.453.815,0,1.432.4,1.344,1.523l2.755-7.22-1.786-.281.133-.516a9.013,9.013,0,0,0,3.834-.468l.264.492a41.514,41.514,0,0,0-2.292,5.064l-2.093,5.274c-1.212,3.118-1.565,4.173-1.565,4.735,0,.421.155.633.529.633.793,0,1.786-1.149,2.27-1.758Zm-8.418.727c0,.469.111,1.148.9,1.148,2.578,0,4.606-6.446,4.606-7.853a.948.948,0,0,0-.97-1.078C336.226,295.084,334.044,300.828,334.044,302.866Z" transform="translate(-332.347 -287.372)" fill="#1a1818"/>
      <path id="Path_9042" data-name="Path 9042" d="M349.337,301.958c-.508.773-1.829,2.812-3.835,2.812-1.5,0-2.754-1.148-2.754-3.353,0-3.773,3.989-7.008,6.236-7.008a1.646,1.646,0,0,1,1.763,1.734c0,2.251-2.82,3.586-5.134,3.586-.2,0-.419-.023-.617-.023a4.9,4.9,0,0,0-.485,2.155c0,1.712,1.124,1.971,1.564,1.971,1.212,0,2.38-1.571,2.8-2.134Zm-1.367-3.587a3.062,3.062,0,0,0,1.235-2.18c0-.726-.441-1.054-.815-1.054a1.469,1.469,0,0,0-.97.586,14.151,14.151,0,0,0-2.093,3.353A4.14,4.14,0,0,0,347.97,298.371Z" transform="translate(-332.459 -287.448)" fill="#1a1818"/>
    </g>
    <g id="Group_26967" data-name="Group 26967" transform="translate(355.363 280.312)">
      <path id="Path_9043" data-name="Path 9043" d="M360.509,282.576l-4.327-.047.044-1.3c.786.046,1.791.046,2.666.046.917,0,1.879,0,2.709-.046,3.277-.186,6.38-.465,7.56-.465,1.616,0,4.676.139,6.948,1.906a7.479,7.479,0,0,1,2.8,5.9c0,4.789-3.8,7.531-7.823,8.275a12.324,12.324,0,0,1-1.223.186l1.792.418a9.37,9.37,0,0,1,3.889,1.72c2.4,2.045,2.578,5.718,2.666,8.09v1.719c.043,1.162.043,2.464,1.005,3.394a2.376,2.376,0,0,0,1.486.7.742.742,0,0,0,.83-.744c0-.186-.306-1.255-.306-1.488a1.114,1.114,0,0,1,1.224-1.069,1.537,1.537,0,0,1,1.486,1.627c0,1.069-.875,2.929-3.759,2.929a6.072,6.072,0,0,1-1.835-.279,6.473,6.473,0,0,1-3.539-2.7,7.44,7.44,0,0,1-1.267-4.045l-.087-2.047c-.306-5.206-1.005-7.624-6.337-7.624l-2.228.047v6.229c0,2.325,0,4.323-.088,8.74l4.982.047v1.255c-2.316-.047-4.632-.047-6.948-.047-2.4,0-4.807,0-7.209.047V312.7l4.763-.047v-.79c.087-3.208.087-5.114.132-8.787Zm4.369,13.808c2.621.047,5.55.093,7.3-1.3a7.027,7.027,0,0,0,2.01-5.393,8.931,8.931,0,0,0-1.7-5.672,5.76,5.76,0,0,0-4.588-1.813,6.286,6.286,0,0,0-2.534.372c-.481.325-.524.744-.481,2.139Z" transform="translate(-355.614 -280.763)" fill="#1a1818"/>
    </g>
    <g id="Group_26968" data-name="Group 26968" transform="translate(386.453 291.458)">
      <path id="Path_9044" data-name="Path 9044" d="M401.457,308.541c-1.109,1.693-4,6.153-8.39,6.153-3.278,0-6.025-2.513-6.025-7.332,0-8.255,8.726-15.331,13.643-15.331a3.6,3.6,0,0,1,3.857,3.794c0,4.922-6.171,7.846-11.234,7.846-.434,0-.916-.051-1.349-.051a10.733,10.733,0,0,0-1.061,4.718c0,3.743,2.459,4.307,3.424,4.307,2.651,0,5.206-3.436,6.122-4.667Zm-2.989-7.846a6.7,6.7,0,0,0,2.7-4.768c0-1.59-.964-2.307-1.784-2.307a3.2,3.2,0,0,0-2.121,1.282,30.839,30.839,0,0,0-4.58,7.332A9.053,9.053,0,0,0,398.468,300.7Z" transform="translate(-387.042 -292.031)" fill="#1a1818"/>
      <path id="Path_9045" data-name="Path 9045" d="M412.8,300.9a12.333,12.333,0,0,1,1.881,6.05,7.517,7.517,0,0,1-7.281,7.743,5.843,5.843,0,0,1-5.881-5.281,2.538,2.538,0,0,1,2.362-2.615,2.073,2.073,0,0,1,2.025,2,1.427,1.427,0,0,1-1.109,1.436c-.386,0-.675.051-.675.411a3.429,3.429,0,0,0,3.47,2.46,3.721,3.721,0,0,0,3.81-3.589,8.722,8.722,0,0,0-1.495-3.743,11.927,11.927,0,0,1-1.832-5.795c0-4,3.327-7.946,7.521-7.946,2.362,0,4.049,1.231,4.049,2.974a2.44,2.44,0,0,1-2.121,2.564,1.323,1.323,0,0,1-1.4-1.282c0-.206.433-1.231.433-1.487,0-.718-.819-1.232-1.735-1.232a3.643,3.643,0,0,0-3.52,3.385A10.394,10.394,0,0,0,412.8,300.9Z" transform="translate(-387.198 -292.031)" fill="#1a1818"/>
      <path id="Path_9046" data-name="Path 9046" d="M432.793,309c-1.3,2.1-4.1,5.691-8.051,5.691-3.23,0-6.026-2.513-6.026-7.127,0-6.923,6.508-15.536,13.692-15.536,3.134,0,4,1.64,4,2.974,0,1.9-1.157,3.384-2.46,3.384A1.436,1.436,0,0,1,432.407,297a3.64,3.64,0,0,1,.337-1.18,2.1,2.1,0,0,0,.386-1.025,1.527,1.527,0,0,0-1.639-1.385c-4.1,0-8.726,10.512-8.726,15.075,0,2.256.964,4.205,3.181,4.205,2.6,0,5.11-3.231,5.978-4.359Z" transform="translate(-387.383 -292.031)" fill="#1a1818"/>
      <path id="Path_9047" data-name="Path 9047" d="M456.583,309.105c-1.831,2.359-4.1,5.281-6.99,5.281-2.8,0-2.941-2.82-2.941-3.795a6.2,6.2,0,0,1,.24-1.692c-1.591,2.871-4.483,5.794-7.762,5.794-3.664,0-4.677-3.589-4.677-6.307,0-8.614,8.534-16.356,14.03-16.356,3.278,0,3.471,2.564,3.519,3.537l1.254-2.922H457.4c-1.108,2.307-2.12,4.409-4.483,9.844-.722,1.693-2.7,6.307-2.7,7.744a1.447,1.447,0,0,0,1.446,1.589c1.012,0,2.217-.973,4.1-3.436Zm-9.063-3.9c.819-1.59,2.989-5.795,2.989-8.358,0-2.2-1.11-3.077-2.459-3.077-4.773,0-9.738,12.665-9.738,16.151,0,.719.048,2.461,2.072,2.461C443.711,312.386,446.362,307.414,447.52,305.209Z" transform="translate(-387.553 -292.031)" fill="#1a1818"/>
    </g>
    <g id="Group_26969" data-name="Group 26969" transform="translate(446.996 289.714)">
      <path id="Path_9048" data-name="Path 9048" d="M460.971,316.009c-2.8,7.947-3.23,9.178-4.436,12.05l5.207-.1-.386,1.333c-.241,0-10.076.051-13.113.256l.482-1.334,3.665-.1c1.349-3.128,1.687-4.05,4.916-12.716l6.461-19.074-2.17,1.025a10.334,10.334,0,0,0-4.29,4.257l-.675-.82c1.928-3.179,2.94-4.1,5.5-5.539,4.243-2.255,5.3-3.384,6.413-4.974l.675.923-1.929,5.128c1.061-1.538,2.942-4.307,6.413-4.307,2.41,0,5.4,1.487,5.4,6.409,0,8.254-8.727,16.254-13.4,16.254a4.048,4.048,0,0,1-3.617-2.1Zm14.368-20c0-.615,0-2.513-1.977-2.513-5.448,0-10.221,12.511-10.221,17.023,0,1.744.82,2.513,2.121,2.513C470.566,313.034,475.339,300.575,475.339,296.011Z" transform="translate(-448.244 -290.268)" fill="#1a1818"/>
    </g>
    <g id="Group_26970" data-name="Group 26970" transform="translate(477.654 275.05)">
      <path id="Path_9049" data-name="Path 9049" d="M493.652,308.363c-1.109,1.693-4,6.153-8.389,6.153-3.278,0-6.027-2.513-6.027-7.332,0-8.255,8.727-15.331,13.644-15.331a3.6,3.6,0,0,1,3.857,3.794c0,4.922-6.172,7.846-11.234,7.846-.433,0-.916-.051-1.349-.051a10.735,10.735,0,0,0-1.06,4.718c0,3.743,2.458,4.307,3.423,4.307,2.651,0,5.206-3.436,6.122-4.667Zm-2.989-7.846a6.693,6.693,0,0,0,2.7-4.768c0-1.59-.965-2.307-1.785-2.307a3.2,3.2,0,0,0-2.121,1.282,30.9,30.9,0,0,0-4.581,7.332A9.054,9.054,0,0,0,490.663,300.517Zm1.688-13.279-.723-.77,6.75-7.9c1.928-2.2,2.748-3.127,3.761-3.127a1.411,1.411,0,0,1,1.349,1.59c0,.974-.337,1.23-2.893,3.333Z" transform="translate(-479.236 -275.444)" fill="#1a1818"/>
      <path id="Path_9050" data-name="Path 9050" d="M504.941,300.9a12.322,12.322,0,0,1,1.88,6.05,7.516,7.516,0,0,1-7.28,7.743,5.844,5.844,0,0,1-5.882-5.281,2.538,2.538,0,0,1,2.362-2.615,2.073,2.073,0,0,1,2.025,2,1.427,1.427,0,0,1-1.108,1.436c-.387,0-.676.051-.676.411a3.43,3.43,0,0,0,3.471,2.46,3.721,3.721,0,0,0,3.808-3.589,8.718,8.718,0,0,0-1.494-3.743,11.929,11.929,0,0,1-1.833-5.795c0-4,3.327-7.946,7.522-7.946,2.361,0,4.049,1.231,4.049,2.974a2.441,2.441,0,0,1-2.121,2.564,1.323,1.323,0,0,1-1.4-1.282c0-.206.433-1.231.433-1.487,0-.718-.82-1.232-1.736-1.232a3.642,3.642,0,0,0-3.519,3.385A10.392,10.392,0,0,0,504.941,300.9Z" transform="translate(-479.391 -275.623)" fill="#1a1818"/>
    </g>
  </g>
</svg>
