<svg xmlns="http://www.w3.org/2000/svg" width="173.131" height="87.803" viewBox="0 0 173.131 87.803">
  <g id="Group_26900" data-name="Group 26900" transform="translate(-332.347 -238.87)">
    <g id="Group_26900-2" data-name="Group 26900" transform="translate(335.058 238.87)">
      <path id="Path_9017" data-name="Path 9017" d="M340.865,240.594l-4.792-.22.029-1.486c3.747.276,5.344.331,7.325.331,1.927,0,4.949-.221,6.763-.331,4.456-.11,7.6.221,10.334,2.422a10.015,10.015,0,0,1,3.709,7.54c.108,6.164-5.144,11.117-13.013,11.117a16.555,16.555,0,0,1-4.524-.605l.118,6.715c.152,5.559.178,7.045.068,10.237l6.44.055.026,1.485c-3.193-.055-6.44-.055-9.631-.055-2.862,0-5.724,0-8.529.055l-.026-1.485,6.162-.055c.108-3.3.085-4.623-.008-9.908Zm5.806,17.336a14.243,14.243,0,0,0,3.253.386,8.624,8.624,0,0,0,5.038-1.43c1.848-1.321,3.231-4.129,3.171-7.541a9.64,9.64,0,0,0-.955-4.293c-1.37-2.806-3.873-4.349-8.055-4.349a21.73,21.73,0,0,0-2.75.166Z" transform="translate(-335.16 -238.87)" fill="#fff"/>
    </g>
    <g id="Group_26901" data-name="Group 26901" transform="translate(358.199 253.499)">
      <path id="Path_9018" data-name="Path 9018" d="M374.372,266.581c2.837,7.9,3.176,8.783,4.121,10.877l2.5.034v.912c-2.2-.034-4.594-.034-6.79-.034-.811,0-1.723,0-2.534.034v-.912l2.939-.034-2.33-7.195h-6.655l-2.06,7.195,3.31.034v.912c-1.216-.034-2.5-.034-3.715-.034-1.318,0-2.669,0-3.986.034v-.912l2.567-.034c1.216-3.108,1.927-5.4,3.041-9.188l2.128-7.061c1.081-3.884,1.385-5.1,1.825-7.161h1.486c.3,1.115.473,1.756,1.284,4.189.507,1.554,1.014,3.074,1.52,4.594Zm-2.433,2.669-.743-2.3c-1.79-5.27-1.992-5.878-2.5-7.162l-2.77,9.458Z" transform="translate(-359.171 -254.049)" fill="#fff"/>
    </g>
    <g id="Group_26902" data-name="Group 26902" transform="translate(379.513 253.735)">
      <path id="Path_9019" data-name="Path 9019" d="M385.069,255.612l-3.343-.034.034-.945c.608.034,1.385.034,2.061.034.709,0,1.452,0,2.094-.034,2.533-.136,4.932-.338,5.843-.338a9.287,9.287,0,0,1,5.371,1.385,5.318,5.318,0,0,1,2.162,4.29c0,3.479-2.939,5.472-6.047,6.013-.337.068-.642.1-.945.136l1.385.3a7.477,7.477,0,0,1,3.007,1.25c1.857,1.486,1.992,4.155,2.061,5.877v1.25a3.19,3.19,0,0,0,.777,2.465,1.888,1.888,0,0,0,1.148.507c.338,0,.642-.169.642-.54,0-.135-.236-.913-.236-1.081,0-.642.642-.777.945-.777a1.147,1.147,0,0,1,1.149,1.183c0,.777-.676,2.128-2.9,2.128a5.072,5.072,0,0,1-4.155-2.163,5.174,5.174,0,0,1-.98-2.939l-.067-1.486c-.236-3.784-.777-5.54-4.9-5.54l-1.723.034v4.527c0,1.689,0,3.141-.068,6.35l3.851.034v.912c-1.791-.034-3.58-.034-5.371-.034-1.857,0-3.715,0-5.574.034V277.5l3.682-.034v-.574c.068-2.33.068-3.715.1-6.384Zm3.378,10.033c2.027.033,4.291.067,5.642-.947a4.952,4.952,0,0,0,1.554-3.919,6.209,6.209,0,0,0-1.318-4.12,4.621,4.621,0,0,0-3.547-1.318,5.152,5.152,0,0,0-1.959.271c-.372.236-.4.541-.372,1.554Z" transform="translate(-381.286 -254.294)" fill="#fff"/>
    </g>
    <g id="Group_26903" data-name="Group 26903" transform="translate(401.333 253.499)">
      <path id="Path_9020" data-name="Path 9020" d="M423.383,275.364a11.1,11.1,0,0,1-8.005,3.547c-5.742,0-11.452-5.033-11.452-12.262,0-5.945,4.392-12.6,11.283-12.6a12.531,12.531,0,0,1,8.174,21.315Zm-1.215-14.424c-.271-1.081-1.419-5.709-6.824-5.709a6.92,6.92,0,0,0-2.938.574c-3.277,1.419-4.324,4.932-4.324,11.215,0,2.364.136,5.978,2.365,8.512a6.088,6.088,0,0,0,4.965,2.162c6.993,0,7.263-7.161,7.263-10.776A25.114,25.114,0,0,0,422.167,260.94Z" transform="translate(-403.926 -254.049)" fill="#fff"/>
    </g>
    <g id="Group_26904" data-name="Group 26904" transform="translate(424.234 254.005)">
      <path id="Path_9021" data-name="Path 9021" d="M435.12,271.262c-.034,4.121-.034,4.9-.067,5.877h2.67c4.29-.135,5.574-.169,6.856-1.148,1.554-1.216,1.656-2.9,1.858-5.844l.946.034-.27,3.919c-.034.81-.1,1.587-.1,2.432-.033,1.351-.134,1.96-1.182,1.96-.507,0-2.939-.035-3.479-.068-1.249,0-7.3-.067-8.647-.067-1.555,0-4.528.067-6.014.1l.035-.912,3.884-.135c.034-1.452.067-2.906.067-6.08v-9.324c0-3.513,0-4.9-.067-6.485l-3.884-.067v-.879c1.824.034,3.715.034,5.54.034,3.074,0,5.371-.034,5.843-.034v.879l-4.054.067c.034,1.048.034,1.621.034,3.107.034,1.149.034,2.3.034,3.446Z" transform="translate(-427.688 -254.574)" fill="#fff"/>
    </g>
    <g id="Group_26905" data-name="Group 26905" transform="translate(444.13 253.6)">
      <path id="Path_9022" data-name="Path 9022" d="M455.493,266.254l.169,10.91,2.162-.034c3.682-.068,5.439-.135,6.958-1.013,1.791-1.047,2.094-2.534,2.365-5.439l.945.034-.338,3.919c-.1,1.824-.168,2.466-.2,3.141-.067.574-.1.642-1.249.642-.238,0-1.453-.034-1.724-.034-3.412-.067-6.824-.067-10.234-.067-2.871,0-4.323.034-6.013.135V277.5l3.818-.135V255.579H448.77v-.98c.946.035,3.175.035,5.54.035,2.2,0,4.695-.035,5.877-.035,2.263-.067,4.662-.169,6.485-.27-.033,1.013-.033,1.317-.033,2.263l.2,4.291-.945.068a7.715,7.715,0,0,0-1.183-3.547c-1.182-1.42-3.31-1.656-6.621-1.656l-2.432.034-.135,9.526,1.52-.068c.979-.068,2.466-.169,3.141-1.621a7.1,7.1,0,0,0,.473-2.669l.912.034c-.068,1.216-.135,2.432-.135,5.472,0,.642,0,2.433.068,4.29h-.945c-.271-2.364-.3-2.635-.541-3.107-.574-1.048-1.587-1.183-2.871-1.318Z" transform="translate(-448.331 -254.16)" fill="#fff"/>
      <path id="Path_9023" data-name="Path 9023" d="M471.981,270.267c.1,1.249.338,3.884,2.229,5.708a5.3,5.3,0,0,0,3.885,1.486c3.75,0,5.675-2.433,5.675-4.864a3.926,3.926,0,0,0-.371-1.689c-.709-1.487-2.1-1.96-3.919-2.5l-1.925-.574a10.694,10.694,0,0,1-4.257-2.027,5.95,5.95,0,0,1-2.163-4.729,6.767,6.767,0,0,1,6.622-6.925,7.865,7.865,0,0,1,4.829,1.823l.913-.844.642.3a18.837,18.837,0,0,0-.473,4.29c0,.743.035,1.419.1,2.094l-.947.1a11.83,11.83,0,0,0-.573-3.311,4.824,4.824,0,0,0-4.561-3.242,4.337,4.337,0,0,0-4.492,4.29c0,2.635,2.061,3.344,4.425,4.02l1.554.439c1.758.439,4.628,1.182,5.946,4.188a7.225,7.225,0,0,1,.574,2.906,7.428,7.428,0,0,1-7.4,7.567,9.8,9.8,0,0,1-5.742-2.094l-.945,1.385-.744-.3a17.788,17.788,0,0,0,.372-4.02,33.47,33.47,0,0,0-.2-3.412Z" transform="translate(-449.147 -254.154)" fill="#fff"/>
    </g>
    <g id="Group_26906" data-name="Group 26906" transform="translate(332.347 285.615)">
      <path id="Path_9024" data-name="Path 9024" d="M342.2,301.759c-.6.822-1.824,2.353-3.435,2.353-1.374,0-1.31-1.347-1.289-1.736a3.565,3.565,0,0,1-2.77,1.873c-1.03,0-2.361-.639-2.361-2.833,0-3.9,3.929-7.261,6.184-7.261.794,0,1.4.388,1.31,1.484l2.684-7.035-1.74-.274.129-.5a8.78,8.78,0,0,0,3.736-.456l.257.479a40.441,40.441,0,0,0-2.233,4.934l-2.039,5.138c-1.181,3.038-1.525,4.065-1.525,4.614,0,.411.151.617.516.617.773,0,1.74-1.119,2.212-1.713Zm-8.2.708c0,.457.108,1.119.881,1.119,2.512,0,4.487-6.28,4.487-7.65a.924.924,0,0,0-.945-1.051C336.126,294.886,334,300.481,334,302.468Z" transform="translate(-332.347 -287.372)" fill="#fff"/>
      <path id="Path_9025" data-name="Path 9025" d="M349.168,301.764c-.494.753-1.782,2.74-3.737,2.74-1.46,0-2.683-1.119-2.683-3.266,0-3.676,3.886-6.827,6.076-6.827a1.6,1.6,0,0,1,1.717,1.689c0,2.193-2.748,3.494-5,3.494-.194,0-.409-.022-.6-.022a4.773,4.773,0,0,0-.472,2.1c0,1.668,1.095,1.92,1.524,1.92,1.181,0,2.319-1.531,2.727-2.079Zm-1.332-3.495a2.983,2.983,0,0,0,1.2-2.124c0-.707-.43-1.027-.794-1.027a1.431,1.431,0,0,0-.945.571,13.786,13.786,0,0,0-2.039,3.266A4.033,4.033,0,0,0,347.836,298.269Z" transform="translate(-332.724 -287.627)" fill="#fff"/>
    </g>
    <g id="Group_26907" data-name="Group 26907" transform="translate(354.771 279.245)">
      <path id="Path_9026" data-name="Path 9026" d="M360.383,282.53l-4.216-.045.042-1.268c.766.045,1.745.045,2.6.045.893,0,1.83,0,2.64-.045,3.193-.181,6.215-.453,7.365-.453,1.575,0,4.556.136,6.77,1.857a7.286,7.286,0,0,1,2.725,5.753c0,4.666-3.7,7.337-7.622,8.062a12.007,12.007,0,0,1-1.191.181l1.745.408a9.129,9.129,0,0,1,3.789,1.676c2.342,1.992,2.512,5.571,2.6,7.882v1.675a4.473,4.473,0,0,0,.979,3.307,2.315,2.315,0,0,0,1.448.679.723.723,0,0,0,.809-.725c0-.181-.3-1.223-.3-1.45a1.086,1.086,0,0,1,1.192-1.042,1.5,1.5,0,0,1,1.448,1.585c0,1.042-.852,2.854-3.662,2.854a5.915,5.915,0,0,1-1.788-.272,6.307,6.307,0,0,1-3.448-2.626,7.248,7.248,0,0,1-1.235-3.941l-.085-1.994c-.3-5.072-.979-7.428-6.174-7.428l-2.17.046v6.069c0,2.265,0,4.212-.086,8.515l4.854.045V313.1c-2.256-.045-4.512-.045-6.77-.045-2.341,0-4.683,0-7.024.045V311.88l4.641-.045v-.77c.085-3.126.085-4.983.128-8.561Zm4.257,13.452c2.554.046,5.407.091,7.11-1.267a6.847,6.847,0,0,0,1.958-5.255,8.7,8.7,0,0,0-1.661-5.526,5.612,5.612,0,0,0-4.47-1.767,6.124,6.124,0,0,0-2.469.362c-.468.317-.511.725-.468,2.084Z" transform="translate(-355.614 -280.763)" fill="#fff"/>
    </g>
    <g id="Group_26908" data-name="Group 26908" transform="translate(385.061 290.105)">
      <path id="Path_9027" data-name="Path 9027" d="M401.086,308.117c-1.08,1.649-3.9,5.995-8.174,5.995-3.194,0-5.87-2.448-5.87-7.144,0-8.043,8.5-14.937,13.292-14.937a3.509,3.509,0,0,1,3.758,3.7c0,4.8-6.012,7.644-10.945,7.644-.423,0-.893-.05-1.315-.05a10.456,10.456,0,0,0-1.034,4.6c0,3.647,2.4,4.2,3.336,4.2,2.583,0,5.072-3.347,5.965-4.547Zm-2.913-7.644a6.523,6.523,0,0,0,2.63-4.645c0-1.549-.939-2.247-1.738-2.247A3.113,3.113,0,0,0,397,294.829a30.043,30.043,0,0,0-4.462,7.144A8.82,8.82,0,0,0,398.174,300.473Z" transform="translate(-387.042 -292.031)" fill="#fff"/>
      <path id="Path_9028" data-name="Path 9028" d="M412.5,300.673a12.015,12.015,0,0,1,1.832,5.895,7.323,7.323,0,0,1-7.093,7.543,5.693,5.693,0,0,1-5.73-5.145,2.473,2.473,0,0,1,2.3-2.548,2.019,2.019,0,0,1,1.973,1.948,1.39,1.39,0,0,1-1.08,1.4c-.376,0-.657.049-.657.4a3.34,3.34,0,0,0,3.381,2.4,3.626,3.626,0,0,0,3.712-3.5,8.5,8.5,0,0,0-1.456-3.647,11.62,11.62,0,0,1-1.785-5.646c0-3.9,3.241-7.742,7.328-7.742,2.3,0,3.945,1.2,3.945,2.9a2.378,2.378,0,0,1-2.066,2.5,1.289,1.289,0,0,1-1.362-1.249c0-.2.422-1.2.422-1.449,0-.7-.8-1.2-1.69-1.2a3.55,3.55,0,0,0-3.429,3.3A10.128,10.128,0,0,0,412.5,300.673Z" transform="translate(-387.566 -292.031)" fill="#fff"/>
      <path id="Path_9029" data-name="Path 9029" d="M432.431,308.567c-1.268,2.048-3.992,5.545-7.844,5.545-3.147,0-5.871-2.448-5.871-6.944,0-6.744,6.341-15.136,13.34-15.136,3.053,0,3.9,1.6,3.9,2.9,0,1.849-1.128,3.3-2.4,3.3a1.4,1.4,0,0,1-1.5-1.348,3.549,3.549,0,0,1,.329-1.15,2.042,2.042,0,0,0,.376-1,1.487,1.487,0,0,0-1.6-1.349c-3.993,0-8.5,10.241-8.5,14.687,0,2.2.939,4.1,3.1,4.1,2.537,0,4.979-3.148,5.824-4.246Z" transform="translate(-388.189 -292.031)" fill="#fff"/>
      <path id="Path_9030" data-name="Path 9030" d="M456.014,308.666c-1.784,2.3-3.992,5.146-6.81,5.146-2.725,0-2.865-2.748-2.865-3.7a6.04,6.04,0,0,1,.234-1.648c-1.55,2.8-4.368,5.645-7.562,5.645-3.57,0-4.557-3.5-4.557-6.145,0-8.393,8.314-15.935,13.669-15.935,3.194,0,3.382,2.5,3.428,3.446l1.222-2.847h4.038c-1.079,2.247-2.065,4.3-4.368,9.591-.7,1.649-2.629,6.145-2.629,7.544a1.41,1.41,0,0,0,1.409,1.548c.986,0,2.16-.948,3.992-3.347Zm-8.83-3.8c.8-1.549,2.913-5.646,2.913-8.143,0-2.148-1.081-3-2.4-3-4.65,0-9.487,12.339-9.487,15.736,0,.7.046,2.4,2.019,2.4C443.473,311.863,446.056,307.018,447.184,304.87Z" transform="translate(-388.759 -292.031)" fill="#fff"/>
    </g>
    <g id="Group_26909" data-name="Group 26909" transform="translate(444.046 288.406)">
      <path id="Path_9031" data-name="Path 9031" d="M460.644,315.346c-2.725,7.743-3.147,8.942-4.322,11.74l5.073-.1-.376,1.3c-.235,0-9.817.05-12.776.25l.469-1.3,3.571-.1c1.315-3.047,1.643-3.946,4.79-12.388l6.294-18.583-2.115,1a10.069,10.069,0,0,0-4.18,4.147l-.657-.8c1.878-3.1,2.864-4,5.354-5.4,4.134-2.2,5.168-3.3,6.248-4.846l.657.9-1.879,5c1.033-1.5,2.866-4.2,6.248-4.2,2.348,0,5.26,1.449,5.26,6.244,0,8.042-8.5,15.836-13.058,15.836A3.944,3.944,0,0,1,461.723,312Zm14-19.483c0-.6,0-2.448-1.927-2.448-5.308,0-9.958,12.189-9.958,16.585,0,1.7.8,2.448,2.066,2.448C469.992,312.448,474.642,300.31,474.642,295.864Z" transform="translate(-448.244 -290.268)" fill="#fff"/>
    </g>
    <g id="Group_26910" data-name="Group 26910" transform="translate(473.915 274.119)">
      <path id="Path_9032" data-name="Path 9032" d="M493.281,307.516c-1.08,1.649-3.9,5.995-8.173,5.995-3.194,0-5.872-2.448-5.872-7.144,0-8.043,8.5-14.937,13.293-14.937a3.509,3.509,0,0,1,3.758,3.7c0,4.8-6.013,7.644-10.945,7.644-.422,0-.893-.05-1.315-.05a10.459,10.459,0,0,0-1.033,4.6c0,3.647,2.4,4.2,3.335,4.2,2.583,0,5.072-3.347,5.965-4.547Zm-2.912-7.644A6.521,6.521,0,0,0,493,295.227c0-1.549-.94-2.248-1.739-2.248a3.114,3.114,0,0,0-2.066,1.249,30.109,30.109,0,0,0-4.463,7.144A8.822,8.822,0,0,0,490.369,299.872Zm1.644-12.938-.7-.75,6.576-7.694c1.878-2.147,2.677-3.046,3.664-3.046a1.375,1.375,0,0,1,1.315,1.549c0,.949-.329,1.2-2.818,3.247Z" transform="translate(-479.236 -275.444)" fill="#fff"/>
      <path id="Path_9033" data-name="Path 9033" d="M504.651,300.673a12.006,12.006,0,0,1,1.832,5.895,7.322,7.322,0,0,1-7.092,7.543,5.694,5.694,0,0,1-5.731-5.145,2.473,2.473,0,0,1,2.3-2.548,2.019,2.019,0,0,1,1.973,1.948,1.39,1.39,0,0,1-1.079,1.4c-.377,0-.658.049-.658.4a3.342,3.342,0,0,0,3.382,2.4,3.625,3.625,0,0,0,3.711-3.5,8.494,8.494,0,0,0-1.455-3.647,11.623,11.623,0,0,1-1.786-5.646c0-3.9,3.241-7.742,7.329-7.742,2.3,0,3.945,1.2,3.945,2.9a2.378,2.378,0,0,1-2.066,2.5,1.289,1.289,0,0,1-1.362-1.249c0-.2.422-1.2.422-1.449,0-.7-.8-1.2-1.691-1.2a3.549,3.549,0,0,0-3.428,3.3A10.124,10.124,0,0,0,504.651,300.673Z" transform="translate(-479.759 -276.045)" fill="#fff"/>
    </g>
  </g>
</svg>
